<svg width="123" height="124" viewBox="0 0 123 124" fill="none" xmlns="http://www.w3.org/2000/svg">
<path opacity="0.0884859" fill-rule="evenodd" clip-rule="evenodd" d="M66.3954 8.35878C66.3954 9.6615 67.4475 10.7176 68.7452 10.7176C70.043 10.7176 71.0951 9.6615 71.0951 8.35878C71.0951 7.05606 70.043 6 68.7452 6C67.4475 6 66.3954 7.05606 66.3954 8.35878ZM80.4943 8.35878C80.4943 9.6615 81.5463 10.7176 82.8441 10.7176C84.1419 10.7176 85.1939 9.6615 85.1939 8.35878C85.1939 7.05606 84.1419 6 82.8441 6C81.5463 6 80.4943 7.05606 80.4943 8.35878ZM110.65 10.7176C109.352 10.7176 108.3 9.6615 108.3 8.35878C108.3 7.05606 109.352 6 110.65 6C111.948 6 113 7.05606 113 8.35878C113 9.6615 111.948 10.7176 110.65 10.7176ZM94.2015 8.35878C94.2015 9.6615 95.2536 10.7176 96.5513 10.7176C97.8491 10.7176 98.9011 9.6615 98.9011 8.35878C98.9011 7.05606 97.8491 6 96.5513 6C95.2536 6 94.2015 7.05606 94.2015 8.35878ZM82.8441 24.8702C81.5463 24.8702 80.4943 23.8142 80.4943 22.5114C80.4943 21.2087 81.5463 20.1527 82.8441 20.1527C84.1419 20.1527 85.1939 21.2087 85.1939 22.5114C85.1939 23.8142 84.1419 24.8702 82.8441 24.8702ZM66.3954 22.5114C66.3954 23.8142 67.4475 24.8702 68.7452 24.8702C70.043 24.8702 71.0951 23.8142 71.0951 22.5114C71.0951 21.2087 70.043 20.1527 68.7452 20.1527C67.4475 20.1527 66.3954 21.2087 66.3954 22.5114ZM110.65 24.8702C109.352 24.8702 108.3 23.8142 108.3 22.5114C108.3 21.2087 109.352 20.1527 110.65 20.1527C111.948 20.1527 113 21.2087 113 22.5114C113 23.8142 111.948 24.8702 110.65 24.8702ZM94.2015 22.5114C94.2015 23.8142 95.2536 24.8702 96.5513 24.8702C97.8491 24.8702 98.9011 23.8142 98.9011 22.5114C98.9011 21.2087 97.8491 20.1527 96.5513 20.1527C95.2536 20.1527 94.2015 21.2087 94.2015 22.5114ZM82.8441 52.7824C81.5463 52.7824 80.4943 51.7264 80.4943 50.4237C80.4943 49.1209 81.5463 48.0649 82.8441 48.0649C84.1419 48.0649 85.1939 49.1209 85.1939 50.4237C85.1939 51.7264 84.1419 52.7824 82.8441 52.7824ZM66.3954 50.4237C66.3954 51.7264 67.4475 52.7824 68.7452 52.7824C70.043 52.7824 71.0951 51.7264 71.0951 50.4237C71.0951 49.1209 70.043 48.0649 68.7452 48.0649C67.4475 48.0649 66.3954 49.1209 66.3954 50.4237ZM110.65 52.7824C109.352 52.7824 108.3 51.7264 108.3 50.4237C108.3 49.1209 109.352 48.0649 110.65 48.0649C111.948 48.0649 113 49.1209 113 50.4237C113 51.7264 111.948 52.7824 110.65 52.7824ZM94.2015 50.4237C94.2015 51.7264 95.2536 52.7824 96.5513 52.7824C97.8491 52.7824 98.9011 51.7264 98.9011 50.4237C98.9011 49.1209 97.8491 48.0649 96.5513 48.0649C95.2536 48.0649 94.2015 49.1209 94.2015 50.4237ZM26.4487 52.7824C25.1509 52.7824 24.0989 51.7264 24.0989 50.4237C24.0989 49.1209 25.1509 48.0649 26.4487 48.0649C27.7464 48.0649 28.7985 49.1209 28.7985 50.4237C28.7985 51.7264 27.7464 52.7824 26.4487 52.7824ZM10 50.4237C10 51.7264 11.052 52.7824 12.3498 52.7824C13.6476 52.7824 14.6996 51.7264 14.6996 50.4237C14.6996 49.1209 13.6476 48.0649 12.3498 48.0649C11.052 48.0649 10 49.1209 10 50.4237ZM54.6464 52.7824C53.3486 52.7824 52.2966 51.7264 52.2966 50.4237C52.2966 49.1209 53.3486 48.0649 54.6464 48.0649C55.9442 48.0649 56.9962 49.1209 56.9962 50.4237C56.9962 51.7264 55.9442 52.7824 54.6464 52.7824ZM37.8061 50.4237C37.8061 51.7264 38.8581 52.7824 40.1559 52.7824C41.4537 52.7824 42.5057 51.7264 42.5057 50.4237C42.5057 49.1209 41.4537 48.0649 40.1559 48.0649C38.8581 48.0649 37.8061 49.1209 37.8061 50.4237ZM82.8441 81.0878C81.5463 81.0878 80.4943 80.0317 80.4943 78.729C80.4943 77.4263 81.5463 76.3702 82.8441 76.3702C84.1419 76.3702 85.1939 77.4263 85.1939 78.729C85.1939 80.0317 84.1419 81.0878 82.8441 81.0878ZM66.3954 78.729C66.3954 80.0317 67.4475 81.0878 68.7452 81.0878C70.043 81.0878 71.0951 80.0317 71.0951 78.729C71.0951 77.4263 70.043 76.3702 68.7452 76.3702C67.4475 76.3702 66.3954 77.4263 66.3954 78.729ZM110.65 81.0878C109.352 81.0878 108.3 80.0317 108.3 78.729C108.3 77.4263 109.352 76.3702 110.65 76.3702C111.948 76.3702 113 77.4263 113 78.729C113 80.0317 111.948 81.0878 110.65 81.0878ZM94.2015 78.729C94.2015 80.0317 95.2536 81.0878 96.5513 81.0878C97.8491 81.0878 98.9011 80.0317 98.9011 78.729C98.9011 77.4263 97.8491 76.3702 96.5513 76.3702C95.2536 76.3702 94.2015 77.4263 94.2015 78.729ZM26.4487 81.0878C25.1509 81.0878 24.0989 80.0317 24.0989 78.729C24.0989 77.4263 25.1509 76.3702 26.4487 76.3702C27.7464 76.3702 28.7985 77.4263 28.7985 78.729C28.7985 80.0317 27.7464 81.0878 26.4487 81.0878ZM10 78.729C10 80.0317 11.052 81.0878 12.3498 81.0878C13.6476 81.0878 14.6996 80.0317 14.6996 78.729C14.6996 77.4263 13.6476 76.3702 12.3498 76.3702C11.052 76.3702 10 77.4263 10 78.729ZM54.6464 81.0878C53.3486 81.0878 52.2966 80.0317 52.2966 78.729C52.2966 77.4263 53.3486 76.3702 54.6464 76.3702C55.9442 76.3702 56.9962 77.4263 56.9962 78.729C56.9962 80.0317 55.9442 81.0878 54.6464 81.0878ZM37.8061 78.729C37.8061 80.0317 38.8581 81.0878 40.1559 81.0878C41.4537 81.0878 42.5057 80.0317 42.5057 78.729C42.5057 77.4263 41.4537 76.3702 40.1559 76.3702C38.8581 76.3702 37.8061 77.4263 37.8061 78.729ZM26.4487 109C25.1509 109 24.0989 107.944 24.0989 106.641C24.0989 105.339 25.1509 104.282 26.4487 104.282C27.7464 104.282 28.7985 105.339 28.7985 106.641C28.7985 107.944 27.7464 109 26.4487 109ZM10 106.641C10 107.944 11.052 109 12.3498 109C13.6476 109 14.6996 107.944 14.6996 106.641C14.6996 105.339 13.6476 104.282 12.3498 104.282C11.052 104.282 10 105.339 10 106.641ZM54.6464 109C53.3486 109 52.2966 107.944 52.2966 106.641C52.2966 105.339 53.3486 104.282 54.6464 104.282C55.9442 104.282 56.9962 105.339 56.9962 106.641C56.9962 107.944 55.9442 109 54.6464 109ZM37.8061 106.641C37.8061 107.944 38.8581 109 40.1559 109C41.4537 109 42.5057 107.944 42.5057 106.641C42.5057 105.339 41.4537 104.282 40.1559 104.282C38.8581 104.282 37.8061 105.339 37.8061 106.641ZM82.8441 38.6298C81.5463 38.6298 80.4943 37.5737 80.4943 36.271C80.4943 34.9683 81.5463 33.9122 82.8441 33.9122C84.1419 33.9122 85.1939 34.9683 85.1939 36.271C85.1939 37.5737 84.1419 38.6298 82.8441 38.6298ZM66.3954 36.271C66.3954 37.5737 67.4475 38.6298 68.7452 38.6298C70.043 38.6298 71.0951 37.5737 71.0951 36.271C71.0951 34.9683 70.043 33.9122 68.7452 33.9122C67.4475 33.9122 66.3954 34.9683 66.3954 36.271ZM110.65 38.6298C109.352 38.6298 108.3 37.5737 108.3 36.271C108.3 34.9683 109.352 33.9122 110.65 33.9122C111.948 33.9122 113 34.9683 113 36.271C113 37.5737 111.948 38.6298 110.65 38.6298ZM94.2015 36.271C94.2015 37.5737 95.2536 38.6298 96.5513 38.6298C97.8491 38.6298 98.9011 37.5737 98.9011 36.271C98.9011 34.9683 97.8491 33.9122 96.5513 33.9122C95.2536 33.9122 94.2015 34.9683 94.2015 36.271ZM54.6464 38.6298C53.3486 38.6298 52.2966 37.5737 52.2966 36.271C52.2966 34.9683 53.3486 33.9122 54.6464 33.9122C55.9442 33.9122 56.9962 34.9683 56.9962 36.271C56.9962 37.5737 55.9442 38.6298 54.6464 38.6298ZM38.5894 36.271C38.5894 37.5737 39.6414 38.6298 40.9392 38.6298C42.2369 38.6298 43.289 37.5737 43.289 36.271C43.289 34.9683 42.2369 33.9122 40.9392 33.9122C39.6414 33.9122 38.5894 34.9683 38.5894 36.271ZM82.8441 66.9351C81.5463 66.9351 80.4943 65.8791 80.4943 64.5763C80.4943 63.2736 81.5463 62.2176 82.8441 62.2176C84.1419 62.2176 85.1939 63.2736 85.1939 64.5763C85.1939 65.8791 84.1419 66.9351 82.8441 66.9351ZM66.3954 64.5763C66.3954 65.8791 67.4475 66.9351 68.7452 66.9351C70.043 66.9351 71.0951 65.8791 71.0951 64.5763C71.0951 63.2736 70.043 62.2176 68.7452 62.2176C67.4475 62.2176 66.3954 63.2736 66.3954 64.5763ZM110.65 66.9351C109.352 66.9351 108.3 65.8791 108.3 64.5763C108.3 63.2736 109.352 62.2176 110.65 62.2176C111.948 62.2176 113 63.2736 113 64.5763C113 65.8791 111.948 66.9351 110.65 66.9351ZM94.2015 64.5763C94.2015 65.8791 95.2536 66.9351 96.5513 66.9351C97.8491 66.9351 98.9011 65.8791 98.9011 64.5763C98.9011 63.2736 97.8491 62.2176 96.5513 62.2176C95.2536 62.2176 94.2015 63.2736 94.2015 64.5763ZM26.4487 66.9351C25.1509 66.9351 24.0989 65.8791 24.0989 64.5763C24.0989 63.2736 25.1509 62.2176 26.4487 62.2176C27.7464 62.2176 28.7985 63.2736 28.7985 64.5763C28.7985 65.8791 27.7464 66.9351 26.4487 66.9351ZM10 64.5763C10 65.8791 11.052 66.9351 12.3498 66.9351C13.6476 66.9351 14.6996 65.8791 14.6996 64.5763C14.6996 63.2736 13.6476 62.2176 12.3498 62.2176C11.052 62.2176 10 63.2736 10 64.5763ZM54.6464 66.9351C53.3486 66.9351 52.2966 65.8791 52.2966 64.5763C52.2966 63.2736 53.3486 62.2176 54.6464 62.2176C55.9442 62.2176 56.9962 63.2736 56.9962 64.5763C56.9962 65.8791 55.9442 66.9351 54.6464 66.9351ZM38.5894 64.5763C38.5894 65.8791 39.6414 66.9351 40.9392 66.9351C42.2369 66.9351 43.289 65.8791 43.289 64.5763C43.289 63.2736 42.2369 62.2176 40.9392 62.2176C39.6414 62.2176 38.5894 63.2736 38.5894 64.5763ZM26.4487 94.8473C25.1509 94.8473 24.0989 93.7913 24.0989 92.4885C24.0989 91.1858 25.1509 90.1298 26.4487 90.1298C27.7464 90.1298 28.7985 91.1858 28.7985 92.4885C28.7985 93.7913 27.7464 94.8473 26.4487 94.8473ZM10 92.4885C10 93.7913 11.052 94.8473 12.3498 94.8473C13.6476 94.8473 14.6996 93.7913 14.6996 92.4885C14.6996 91.1858 13.6476 90.1298 12.3498 90.1298C11.052 90.1298 10 91.1858 10 92.4885ZM54.6464 94.8473C53.3486 94.8473 52.2966 93.7913 52.2966 92.4885C52.2966 91.1858 53.3486 90.1298 54.6464 90.1298C55.9442 90.1298 56.9962 91.1858 56.9962 92.4885C56.9962 93.7913 55.9442 94.8473 54.6464 94.8473ZM38.5894 92.4885C38.5894 93.7913 39.6414 94.8473 40.9392 94.8473C42.2369 94.8473 43.289 93.7913 43.289 92.4885C43.289 91.1858 42.2369 90.1298 40.9392 90.1298C39.6414 90.1298 38.5894 91.1858 38.5894 92.4885Z" fill="#23263C"/>
<g filter="url(#filter0_d)">
<path fill-rule="evenodd" clip-rule="evenodd" d="M29.9422 57.1972C30.8506 65.5983 26.9293 74.3901 36.1724 81.8239C45.4017 89.2465 58.7859 91.2076 68.8001 86.4943C68.8001 86.4943 68.3179 87.3171 76.0227 83.9603C80.6234 81.9557 84.8274 78.864 88.2246 74.7241C99.6952 60.7454 97.6398 40.1016 83.6563 28.5333C69.6278 16.9299 48.665 18.9012 37.1711 32.908C31.3696 39.9779 29.029 48.7534 29.9422 57.1972Z" fill="url(#paint0_linear)"/>
<path fill-rule="evenodd" clip-rule="evenodd" d="M29.9422 57.1972C30.8506 65.5983 26.9293 74.3901 36.1724 81.8239C45.4017 89.2465 58.7859 91.2076 68.8001 86.4943C68.8001 86.4943 68.3179 87.3171 76.0227 83.9603C80.6234 81.9557 84.8274 78.864 88.2246 74.7241C99.6952 60.7454 97.6398 40.1016 83.6563 28.5333C69.6278 16.9299 48.665 18.9012 37.1711 32.908C31.3696 39.9779 29.029 48.7534 29.9422 57.1972Z" fill="white"/>
</g>
<path fill-rule="evenodd" clip-rule="evenodd" d="M47.1076 57.9264C46.8949 57.871 46.6989 57.7645 46.5367 57.6161C44.9152 55.9962 46.9897 54.1374 49.3963 53.0404V49.9651C49.9688 50.2987 50.2543 50.3468 50.2791 50.3949L52.1411 48.5113L51.5204 46.9379C56.9092 45.031 59.0768 44.2691 63.4679 43.5244L62.706 42.7858L63.9814 42.0038C66.914 43.0294 69.679 43.2668 69.2026 45.8177C69.3454 44.1016 67.2709 43.4344 64.0823 42.5282L63.4617 42.9099L64.63 43.9107C59.3856 44.8417 56.1442 45.8658 52.3304 47.2482L52.83 48.654L50.9231 50.5858C51.2334 50.6804 54.5926 51.827 58.0977 49.3227C58.0977 49.2979 58.1691 49.2746 58.1691 49.2498C58.0496 49.0605 57.8107 48.8929 57.5252 48.6292C57.7595 48.6475 57.9876 48.7135 58.1955 48.8232C58.4033 48.9329 58.5866 49.0839 58.7339 49.267C58.8813 49.4501 58.9896 49.6614 59.0523 49.8879C59.115 50.1145 59.1308 50.3514 59.0985 50.5842H58.6222C58.6641 50.2902 58.6137 49.9903 58.4779 49.7262C55.7843 51.7293 52.6392 52.0396 49.9688 51.0869V53.4702C48.6577 53.9233 46.3458 55.4004 46.3458 56.8077C46.3665 57.0438 46.4475 57.2706 46.5808 57.4664C46.7142 57.6623 46.8956 57.8207 47.1076 57.9264Z" fill="#231815"/>
<path fill-rule="evenodd" clip-rule="evenodd" d="M58.0739 57.284C55.1662 58.8093 52.3779 60.0242 48.0862 60.1917C42.533 60.0723 41.6749 56.2817 44.3204 52.3282C46.803 48.3235 50.7317 44.7253 57.0436 42.4366C58.8621 41.7896 61.579 41.0262 64.1283 41.0014C67.8708 40.9533 71.4705 42.1449 71.2316 45.7928C71.1137 48.5857 67.1803 52.5376 65.1058 55.3755C64.1997 56.6168 64.0569 57.4019 65.5822 57.3538C71.0656 56.9721 76.0711 55.0171 80.6964 52.9907C77.573 55.163 61.3633 63.3865 61.292 57.7821C61.292 57.0668 61.6256 56.3282 62.15 55.5183C62.7603 54.6463 63.4208 53.8106 64.1283 53.0155C65.2253 51.7277 67.967 48.6524 68.8716 46.7936C70.4465 43.29 66.9414 43.1007 63.9825 42.0037L62.6713 42.7904L63.458 43.529C59.0716 44.2691 56.904 45.0309 51.5106 46.9425L52.1157 48.5112L50.2802 50.3949C50.2553 50.3468 49.9698 50.2987 49.3973 49.9651V53.0404C46.9907 54.1373 44.8976 55.9884 46.5377 57.6176C46.6999 57.766 46.8959 57.8725 47.1087 57.9279C50.0412 59.6207 58.0739 57.2856 58.0739 57.2856V57.284Z" fill="#ED6C00"/>
<path fill-rule="evenodd" clip-rule="evenodd" d="M44.6719 64.0916H46.0311L49.4633 71.2181H47.1995L46.5788 69.7643H44.6719V68.405H45.9318L44.7402 65.6633L44.6673 65.7828L44.6719 64.0916ZM40 71.2181L43.6478 64.0916H44.6719V65.7797L43.4089 68.4019H44.6719V69.7611H42.7665L42.1226 71.215L40 71.2181ZM52.8272 71.2476V66.2902H54.7108V71.2476H52.8272ZM52.7558 65.5268V64.121H54.7574V65.5268H52.7558ZM49.7286 71.2476V64.121H51.5875V71.2476H49.7286ZM60.5263 68.6254C60.5477 68.2356 60.4202 67.8523 60.1694 67.5532C60.045 67.4197 59.8933 67.3144 59.7246 67.2446C59.556 67.1747 59.3743 67.1419 59.1919 67.1482H59.1671V66.2452C59.4178 66.1886 59.6735 66.1569 59.9305 66.1505C60.7171 66.1505 61.313 66.3895 61.766 66.8426C62.2191 67.3189 62.4581 67.938 62.4581 68.7247C62.4581 69.5594 62.2424 70.2034 61.7893 70.6797C61.3611 71.1328 60.7404 71.3702 59.9786 71.3702C59.704 71.3678 59.431 71.3281 59.1671 71.2522V70.2235C59.356 70.2338 59.5446 70.2003 59.7185 70.1258C59.8923 70.0512 60.0466 69.9376 60.1694 69.7937C60.4068 69.5315 60.5263 69.1265 60.5263 68.6254ZM59.1671 67.1482C58.9809 67.1396 58.7951 67.1713 58.6224 67.2412C58.4496 67.3111 58.2941 67.4175 58.1663 67.5532C57.9284 67.8149 57.8094 68.1966 57.8094 68.6983C57.7956 69.1017 57.9217 69.4975 58.1663 69.8186C58.2941 69.9542 58.4496 70.0606 58.6224 70.1305C58.7951 70.2004 58.9809 70.2322 59.1671 70.2235V71.2491C59.0289 71.2113 58.8935 71.1636 58.7621 71.1064C58.4002 70.9114 58.0831 70.6429 57.8311 70.3182V70.8659C57.8079 70.9869 57.8079 71.1297 57.783 71.2491H55.9025C55.9291 71.051 55.9451 70.8516 55.9506 70.6518C55.9695 70.4776 55.9772 70.3025 55.9739 70.1273V64.121H57.8358V67.0055C58.1059 66.7272 58.4309 66.5079 58.79 66.3616C58.9123 66.3124 59.0384 66.2735 59.1671 66.2452V67.1482ZM67.3208 70.509C67.1015 70.8111 66.7926 71.0364 66.4379 71.1529L66.1524 71.2243V70.2794C66.4391 70.2727 66.7156 70.1718 66.9391 69.9923C67.0515 69.8857 67.1394 69.756 67.197 69.6122C67.2546 69.4684 67.2804 69.3138 67.2727 69.1591V69.0381H67.13C66.7483 69.0381 66.4379 69.0614 66.1524 69.0846V68.1257H67.2727V68.0544C67.2727 68.0063 67.296 68.0063 67.296 67.983C67.2992 67.869 67.2799 67.7555 67.2392 67.649C67.1985 67.5425 67.1371 67.4451 67.0586 67.3624C66.8607 67.2111 66.6154 67.1352 66.3666 67.1482C66.2944 67.1444 66.2221 67.1523 66.1524 67.1715V66.1707H66.3898C67.3208 66.1707 67.988 66.3135 68.4411 66.6238C68.8693 66.9341 69.0834 67.411 69.0834 68.0544V70.6037C69.0793 70.7237 69.0876 70.8438 69.1083 70.9621C69.1315 71.0583 69.1548 71.1529 69.1796 71.2491H67.4387C67.3968 71.1572 67.365 71.061 67.3441 70.9621C67.3441 70.8426 67.3208 70.7247 67.3208 70.6037V70.509ZM66.1524 71.2243C65.7957 71.3252 65.4261 71.3733 65.0555 71.3671C64.4348 71.3671 63.9352 71.2243 63.6016 70.9621C63.4362 70.8332 63.3043 70.6664 63.217 70.4757C63.1298 70.285 63.0898 70.0761 63.1004 69.8667C63.0992 69.5849 63.1646 69.3069 63.2913 69.0552C63.4371 68.8177 63.6324 68.6145 63.8638 68.4593C64.1235 68.3146 64.4104 68.2253 64.7063 68.1971C65.1888 68.1402 65.6745 68.1163 66.1602 68.1257V69.0784C65.9407 69.0863 65.7236 69.1271 65.5163 69.1995C65.206 69.2941 65.0632 69.485 65.0632 69.7472C65.0609 69.8303 65.0821 69.9124 65.1244 69.9841C65.1667 70.0557 65.2283 70.114 65.3022 70.1522C65.5148 70.2623 65.7537 70.3117 65.9926 70.2949C66.0495 70.3003 66.1069 70.2924 66.1602 70.2716V71.2243H66.1524ZM66.1524 67.1715C65.9624 67.1663 65.7739 67.2073 65.6032 67.291C65.5232 67.3386 65.4556 67.4045 65.406 67.4832C65.3564 67.562 65.3261 67.6514 65.3177 67.7441H63.4107C63.4373 67.4919 63.5274 67.2506 63.6725 67.0427C63.8177 66.8349 64.0133 66.6672 64.2409 66.5555C64.6691 66.3166 65.313 66.1971 66.1478 66.1738L66.1524 67.1715ZM74.9237 68.6254C74.9452 68.2356 74.8176 67.8523 74.5668 67.5532C74.4424 67.4197 74.2907 67.3144 74.1221 67.2446C73.9534 67.1747 73.7718 67.1419 73.5893 67.1482H73.5661V66.2452C73.8162 66.1885 74.0714 66.1568 74.3279 66.1505C75.1146 66.1505 75.7104 66.3895 76.1635 66.8426C76.6165 67.3189 76.8555 67.938 76.8555 68.7247C76.8555 69.5594 76.6165 70.2034 76.1883 70.6797C75.7585 71.1328 75.1394 71.3702 74.376 71.3702C74.1019 71.3677 73.8295 71.328 73.5661 71.2522V70.2235C73.7547 70.2335 73.9431 70.1999 74.1166 70.1254C74.2901 70.0509 74.4442 69.9374 74.5668 69.7937C74.8042 69.5315 74.9237 69.1265 74.9237 68.6254ZM73.5661 67.1482C73.3797 67.1395 73.1936 67.1711 73.0206 67.241C72.8476 67.3109 72.6917 67.4174 72.5637 67.5532C72.3268 67.8149 72.2079 68.1966 72.2068 68.6983C72.2068 69.1746 72.3263 69.5563 72.5637 69.8186C72.6917 69.9543 72.8476 70.0608 73.0206 70.1307C73.1936 70.2006 73.3797 70.2323 73.5661 70.2235V71.2491C73.4273 71.2113 73.2915 71.1636 73.1595 71.1064C72.7977 70.9114 72.4805 70.6429 72.2286 70.3182V70.8659C72.2053 70.9869 72.2053 71.1297 72.182 71.2491H70.2999C70.3232 71.0335 70.3232 70.8426 70.348 70.6518C70.3669 70.4776 70.3746 70.3025 70.3713 70.1273V64.121H72.2332V67.0055C72.5037 66.7275 72.8285 66.5083 73.1875 66.3616C73.3102 66.3124 73.4369 66.2735 73.5661 66.2452V67.1482ZM81.7182 70.509C81.4957 70.8045 81.1914 71.0283 80.8431 71.1529L80.5576 71.2243V70.2794C80.8443 70.2727 81.1207 70.1718 81.3443 69.9923C81.4566 69.8857 81.5446 69.756 81.6022 69.6122C81.6598 69.4684 81.6856 69.3138 81.6779 69.1591V69.0381H81.5351C81.1535 69.0381 80.8431 69.0614 80.5576 69.0846V68.1257H81.6779V67.983C81.6849 67.8705 81.6695 67.7578 81.6328 67.6513C81.596 67.5448 81.5386 67.4466 81.4638 67.3624C81.2658 67.2111 81.0205 67.1352 80.7718 67.1482C80.6996 67.1444 80.6273 67.1523 80.5576 67.1715V66.1707H80.7966C81.7275 66.1707 82.3932 66.3135 82.8463 66.6238C83.2745 66.9341 83.4886 67.411 83.4886 68.0544V70.6037C83.4845 70.7237 83.4928 70.8438 83.5135 70.9621C83.5367 71.0583 83.56 71.1529 83.5848 71.2491H81.8362C81.7942 71.1572 81.7625 71.061 81.7415 70.9621C81.7221 70.8437 81.7143 70.7236 81.7182 70.6037V70.509ZM80.5499 71.2243C80.1855 71.3266 79.808 71.3747 79.4296 71.3671C78.809 71.3671 78.3326 71.2243 77.999 70.9621C77.8338 70.8331 77.7021 70.6662 77.6151 70.4755C77.5282 70.2848 77.4885 70.076 77.4994 69.8667C77.4977 69.585 77.5625 69.307 77.6887 69.0552C77.8279 68.8127 78.0245 68.6081 78.2612 68.4593C78.5186 68.3156 78.8027 68.2264 79.096 68.1971C79.5784 68.1402 80.0642 68.1163 80.5499 68.1257V69.0784C80.3325 69.0826 80.1173 69.1213 79.9122 69.1933C79.6018 69.2879 79.4591 69.4788 79.4591 69.741C79.4568 69.8241 79.478 69.9062 79.5203 69.9779C79.5625 70.0495 79.6242 70.1077 79.698 70.1459C79.9112 70.2561 80.1507 70.3055 80.3901 70.2887C80.4464 70.2923 80.5029 70.2844 80.5561 70.2654V71.2181L80.5499 71.2243ZM80.5499 67.1715C80.3603 67.1662 80.1723 67.2072 80.0022 67.291C79.9221 67.3386 79.8543 67.4045 79.8045 67.4832C79.7546 67.5619 79.724 67.6513 79.7151 67.7441H77.8082C77.835 67.4946 77.923 67.2556 78.0643 67.0483C78.2055 66.841 78.3958 66.6717 78.6181 66.5555C79.0712 66.3166 79.7151 66.1971 80.5499 66.1738V67.1715Z" fill="#ED6C00"/>
<defs>
<filter id="filter0_d" x="0" y="0.138306" width="122.419" height="123.768" filterUnits="userSpaceOnUse" color-interpolation-filters="sRGB">
<feFlood flood-opacity="0" result="BackgroundImageFix"/>
<feColorMatrix in="SourceAlpha" type="matrix" values="0 0 0 0 0 0 0 0 0 0 0 0 0 0 0 0 0 0 127 0"/>
<feOffset dy="6"/>
<feGaussianBlur stdDeviation="7"/>
<feColorMatrix type="matrix" values="0 0 0 0 0.133333 0 0 0 0 0.160784 0 0 0 0 0.223529 0 0 0 0.1 0"/>
<feBlend mode="normal" in2="BackgroundImageFix" result="effect1_dropShadow"/>
<feBlend mode="normal" in="SourceGraphic" in2="effect1_dropShadow" result="shape"/>
</filter>
<linearGradient id="paint0_linear" x1="14" y1="67" x2="68.7165" y2="103.907" gradientUnits="userSpaceOnUse">
<stop stop-color="#84F1FF"/>
<stop offset="1" stop-color="#4DDFFE"/>
</linearGradient>
</defs>
</svg>
